<svg width="193" height="193" viewBox="0 0 193 193" fill="none" xmlns="http://www.w3.org/2000/svg">
<g clip-path="url(#clip0_66_64)">
<path fill-rule="evenodd" clip-rule="evenodd" d="M96.5317 9.73223C77.7486 9.73223 62.469 25.0117 62.469 43.7948V92.4557C62.469 111.239 77.7486 126.518 96.5317 126.518C115.315 126.518 130.594 111.239 130.594 92.4557V43.7949C130.594 25.0118 115.315 9.73223 96.5317 9.73223ZM38.1386 71.3681C40.8261 71.3681 43.0047 73.5467 43.0047 76.2342V94.8324C43.0047 124.34 67.0237 148.359 96.5317 148.359C126.04 148.359 150.059 124.34 150.059 94.8324V76.2342C150.059 73.5467 152.237 71.3681 154.925 71.3681V71.3681C157.612 71.3681 159.791 73.5467 159.791 76.2342V94.8324C159.791 123.875 140.116 148.411 113.395 155.81C106.764 157.646 101.398 163.221 101.398 170.103L101.398 171.102C101.398 177.821 106.844 183.268 113.563 183.268H120.862C123.55 183.268 125.728 185.446 125.728 188.134V188.134C125.728 190.821 123.55 193 120.862 193H72.2013C69.5138 193 67.3352 190.821 67.3352 188.134V188.134C67.3352 185.446 69.5138 183.268 72.2013 183.268H79.5002C86.2189 183.268 91.6654 177.821 91.6653 171.102L91.6653 170.103C91.6652 163.222 86.2999 157.646 79.6681 155.81C52.9474 148.41 33.2725 123.875 33.2725 94.8324V76.2342C33.2725 73.5467 35.4511 71.3681 38.1386 71.3681V71.3681ZM96.5317 0C120.677 0 140.327 19.6493 140.327 43.7949V92.4557C140.327 116.601 120.677 136.251 96.5316 136.251C72.3861 136.251 52.7368 116.601 52.7368 92.4557V43.7949C52.7368 19.6493 72.3861 0 96.5317 0Z" fill="#E7E7E7"/>
</g>
<defs>
<clipPath id="clip0_66_64">
<rect width="193" height="193" rx="18" fill="white"/>
</clipPath>
</defs>
</svg>
