<svg width="505" height="497" viewBox="0 0 505 497" fill="none" xmlns="http://www.w3.org/2000/svg">
<path d="M146.17 62C210.56 96.27 262.89 136.6 300.17 195C335.08 249.6 339.43 345 300.95 398C268.75 442.4 218.72 448 180.37 408.21C130.73 356.7 121.83 294.92 137.08 227.36C145.73 189.09 154.74 150.81 153.28 111.02C152.71 95.46 152.2 80 146.17 62Z" fill="#5F6491"/>
<path d="M332.11 402C339.43 390.15 344.2 376.44 347.41 362.81C365.66 285.21 339.78 200.63 287.58 140.39C285.16 137.59 282.58 134.39 281.69 130.66C280.63 126.09 282.69 124.95 285.94 122.49C293.087 117.083 300.35 111.827 307.73 106.72C322.47 96.5333 337.617 86.96 353.17 78C357.517 75.4867 361.897 73.03 366.31 70.63C356.73 109.82 363.71 150.97 371.68 190.52C379.65 230.07 388.63 270.46 382.91 310.4C379.593 332.678 371.821 354.059 360.059 373.268C348.297 392.476 332.785 409.118 314.45 422.2C321.484 416.563 327.463 409.724 332.11 402Z" fill="#5F6491"/>
<path d="M32.67 126.3C33.05 124.74 37.05 125.9 38.26 126.03C40.9267 126.317 43.5933 126.65 46.26 127.03C56.9267 128.417 67.5033 130.27 77.99 132.59C90.7869 135.418 103.425 138.923 115.85 143.09C118.85 144.09 122.02 145.23 124.4 147.38C130.9 153.27 129.22 163.71 127.03 172.2C117.75 208.2 108.72 244.89 109.71 282.08C111.28 341.45 139.61 399.27 184.42 438.25C181.61 435.8 178.09 433.91 175.09 431.66C171.87 429.247 168.73 426.743 165.67 424.15C150.064 410.931 136.553 395.422 125.6 378.15C123.747 375.23 121.973 372.263 120.28 369.25C99 331.33 90.57 287.84 80.77 245.52C76.43 226.79 71.71 208.1 65.4 189.91C59.09 171.72 51.27 154.21 40.74 138.18C39.4067 136.18 38.0567 134.21 36.69 132.27C35.75 130.96 32.79 128.27 32.69 126.68C32.6675 126.555 32.6608 126.427 32.67 126.3Z" fill="#5F6491"/>
<path d="M402.72 258.16C400.13 229.79 394.01 201.77 387.16 174.08C385.16 166.21 382.69 157.02 384.9 148.93C387.2 140.52 392.63 141.04 400.72 139.38C420.053 135.38 439.513 132.213 459.1 129.88C460.428 129.618 461.799 129.676 463.1 130.05C467.64 131.79 465.97 138.56 463.65 142.84C425.28 213.26 425.65 299.7 387.74 370.38C401.16 339.86 405.25 305.85 403.74 272.54C403.507 267.74 403.167 262.947 402.72 258.16Z" fill="#5F6491"/>
</svg>
