<svg width="27" height="27" viewBox="0 0 27 27" fill="none" xmlns="http://www.w3.org/2000/svg">
<path d="M7.81478 3.36821C11.2574 5.22996 14.0553 7.42093 16.0484 10.5936C17.9149 13.5598 18.1475 18.7425 16.0901 21.6217C14.3686 24.0338 11.6937 24.338 9.6433 22.1764C6.98928 19.3781 6.51343 16.0218 7.32878 12.3516C7.79126 10.2725 8.27298 8.1929 8.19492 6.03127C8.16444 5.18596 8.13718 4.34608 7.81478 3.36821Z" fill="#7C7676"/>
<path d="M17.7566 21.839C18.148 21.1953 18.403 20.4505 18.5746 19.71C19.5504 15.4943 18.1667 10.8994 15.3758 7.62681C15.2464 7.4747 15.1085 7.30086 15.0609 7.09822C15.0042 6.84995 15.1144 6.78802 15.2881 6.65438C15.6702 6.36066 16.0586 6.07508 16.4531 5.79766C17.2412 5.24426 18.051 4.72418 18.8826 4.23742C19.115 4.10088 19.3492 3.96742 19.5851 3.83704C19.0729 5.96607 19.4461 8.20158 19.8722 10.3502C20.2984 12.4988 20.7785 14.693 20.4727 16.8628C20.2953 18.073 19.8798 19.2346 19.2509 20.2781C18.622 21.3216 17.7927 22.2257 16.8124 22.9364C17.1885 22.6302 17.5082 22.2586 17.7566 21.839Z" fill="#7C7676"/>
<path d="M1.74679 6.86137C1.76711 6.77662 1.98097 6.83964 2.04567 6.8467C2.18824 6.86227 2.33081 6.88038 2.47339 6.90103C3.04369 6.97636 3.60917 7.07704 4.16984 7.20308C4.85403 7.3567 5.52972 7.54711 6.19404 7.7735C6.35444 7.82783 6.52392 7.88976 6.65117 8.00656C6.9987 8.32654 6.90887 8.8937 6.79178 9.35493C6.29563 11.3107 5.81283 13.3039 5.86576 15.3243C5.94971 18.5496 7.46438 21.6907 9.86016 23.8084C9.70992 23.6753 9.52172 23.5726 9.36133 23.4503C9.18917 23.3192 9.02129 23.1832 8.85768 23.0424C8.02329 22.3242 7.30095 21.4817 6.71533 20.5434C6.61624 20.3847 6.52143 20.2236 6.43089 20.0599C5.29315 17.9998 4.84244 15.6372 4.31848 13.3381C4.08644 12.3206 3.83408 11.3052 3.49672 10.317C3.15935 9.32885 2.74125 8.3776 2.17826 7.50676C2.10697 7.39811 2.03479 7.29109 1.96173 7.18569C1.91147 7.11453 1.75321 6.96839 1.74786 6.88201C1.74666 6.8752 1.7463 6.86827 1.74679 6.86137Z" fill="#7C7676"/>
<path d="M21.5314 14.0248C21.393 12.4836 21.0657 10.9613 20.6995 9.45706C20.5926 9.02951 20.4605 8.53025 20.5787 8.09076C20.7016 7.63388 20.992 7.66213 21.4245 7.57195C22.4582 7.35464 23.4986 7.18261 24.5458 7.05585C24.6168 7.04162 24.6901 7.04479 24.7597 7.06508C25.0024 7.15961 24.9131 7.5274 24.7891 7.75991C22.7376 11.5855 22.7574 16.2815 20.7305 20.1212C21.448 18.4632 21.6667 16.6156 21.586 14.806C21.5735 14.5452 21.5553 14.2848 21.5314 14.0248Z" fill="#7C7676"/>
</svg>
