<svg width="127" height="193" viewBox="0 0 127 193" fill="none" xmlns="http://www.w3.org/2000/svg">
<path fill-rule="evenodd" clip-rule="evenodd" d="M63.2593 9.73223C44.4761 9.73223 29.1966 25.0117 29.1966 43.7948V92.4557C29.1966 111.239 44.4761 126.518 63.2593 126.518C82.0424 126.518 97.3219 111.239 97.3219 92.4557V43.7949C97.3219 25.0118 82.0424 9.73223 63.2593 9.73223ZM4.86611 71.3681C7.55359 71.3681 9.73223 73.5467 9.73223 76.2342V94.8324C9.73223 124.34 33.7513 148.359 63.2593 148.359C92.7672 148.359 116.786 124.34 116.786 94.8324V76.2342C116.786 73.5467 118.965 71.3681 121.652 71.3681V71.3681C124.34 71.3681 126.518 73.5467 126.518 76.2342V94.8324C126.518 123.875 106.843 148.411 80.1229 155.81C73.4911 157.646 68.1258 163.221 68.1256 170.103L68.1256 171.102C68.1254 177.821 73.572 183.268 80.2907 183.268H87.5896C90.2771 183.268 92.4557 185.446 92.4557 188.134V188.134C92.4557 190.821 90.2771 193 87.5896 193H38.9288C36.2413 193 34.0627 190.821 34.0627 188.134V188.134C34.0627 185.446 36.2413 183.268 38.9288 183.268H46.2278C52.9465 183.268 58.393 177.821 58.3929 171.102L58.3928 170.103C58.3927 163.222 53.0274 157.646 46.3956 155.81C19.675 148.41 0 123.875 0 94.8324V76.2342C0 73.5467 2.17863 71.3681 4.86611 71.3681V71.3681ZM63.2593 0C87.4048 0 107.054 19.6493 107.054 43.7949V92.4557C107.054 116.601 87.4048 136.251 63.2592 136.251C39.1137 136.251 19.4644 116.601 19.4644 92.4557V43.7949C19.4644 19.6493 39.1137 0 63.2593 0Z" fill="#E7E7E7"/>
</svg>
